<svg xmlns="http://www.w3.org/2000/svg" width="1488" height="2340" viewBox="0 0 1488 2340" version="1.1"><path d="M 575 632.687 C 535.333 635.664, 499.369 644.561, 473.655 657.760 C 439.143 675.476, 401.244 710.957, 374.040 751.022 C 323.713 825.142, 293.141 930.397, 286.909 1051 C 284.678 1094.193, 286.717 1165.801, 291.537 1213.500 C 301.551 1312.609, 324.937 1414.517, 358.198 1504 C 373.220 1544.412, 386.544 1574.227, 414.057 1629 C 443.858 1688.327, 469.452 1732.819, 501.494 1781 C 536.610 1833.803, 568.147 1873.532, 604.837 1911.185 C 645.912 1953.339, 685.726 1983.071, 728.674 2003.662 L 744.070 2011.044 759.410 2003.654 C 767.847 1999.589, 779.193 1993.661, 784.625 1990.479 C 880.421 1934.363, 977.958 1815.135, 1063.806 1649.212 C 1109.192 1561.492, 1133.077 1503.215, 1155.512 1425.463 C 1179.550 1342.151, 1193.133 1264.356, 1200.203 1169.500 C 1201.921 1146.452, 1201.931 1051.548, 1200.218 1032 C 1189.861 913.824, 1162.607 824.218, 1115.510 753.500 C 1102.624 734.151, 1090.936 719.849, 1075.042 703.980 C 1037.683 666.679, 1004.774 648.382, 958.211 639.020 C 932.776 633.907, 919.875 632.637, 893 632.602 C 859.777 632.558, 845.898 634.587, 798 646.489 C 761.089 655.661, 757.073 656.398, 744 656.398 C 730.887 656.398, 727.639 655.794, 687.617 645.923 C 657.771 638.562, 636.468 634.611, 618 633.012 C 607.259 632.083, 585.270 631.916, 575 632.687 M 724 805.042 C 724 806.512, 622.290 1462.394, 621.284 1467.412 C 620.615 1470.751, 611.806 1434.063, 561.096 1216.733 C 501.871 962.908, 501.694 962.118, 502.314 954.081 C 503.076 944.200, 505.918 937.211, 511.063 932.562 C 516.161 927.956, 521.522 926.616, 531.750 927.388 L 540 928.012 540 904.006 L 540 880 456 880 L 372 880 372 903.433 C 372 929.569, 371.264 927.107, 379.500 928.503 C 388.793 930.079, 399.700 937.645, 402.566 944.504 C 403.610 947.001, 609 1826.524, 609 1828.494 C 609 1828.772, 615.698 1829, 623.883 1829 C 637.219 1829, 638.814 1828.818, 639.219 1827.250 C 639.468 1826.287, 660.999 1685.904, 687.066 1515.286 C 713.133 1344.669, 734.747 1205.619, 735.097 1206.286 C 735.447 1206.954, 762.899 1347.350, 796.102 1518.277 L 856.471 1829.053 869.878 1828.777 L 883.286 1828.500 980.104 1390.500 C 1033.353 1149.600, 1077.453 950.566, 1078.104 948.202 C 1079.850 941.857, 1084.273 936.417, 1090.241 933.272 C 1094.997 930.765, 1096.481 930.500, 1105.750 930.500 L 1116 930.500 1116 905.250 L 1116 880 1041 880 L 966 880 966 905.012 L 966 930.024 970.250 929.262 C 972.587 928.843, 978.100 928.520, 982.500 928.545 C 995.973 928.621, 1004.686 934.064, 1008.037 944.500 C 1011.215 954.396, 1012.445 948.570, 950.094 1219.002 C 917.568 1360.076, 890.623 1476.310, 890.216 1477.300 C 889.760 1478.409, 877.439 1421.520, 858.162 1329.300 C 840.939 1246.910, 809.219 1095.125, 787.672 992 L 748.497 804.500 736.249 804.219 C 727.817 804.026, 724 804.282, 724 805.042" stroke="none" fill="#c5050c" fill-rule="evenodd"/><path d="M 724.540 806.250 C 724.322 806.938, 701.152 956, 673.052 1137.500 C 644.951 1319, 621.722 1468.566, 621.431 1469.868 C 621.141 1471.170, 620.709 1472.043, 620.473 1471.807 C 620.237 1471.571, 593.457 1357.555, 560.963 1218.439 L 501.881 965.500 502.242 955 C 502.549 946.069, 502.991 943.753, 505.202 939.500 C 506.632 936.750, 508.865 933.509, 510.165 932.298 C 515.195 927.608, 524.060 925.511, 533.250 926.836 L 539 927.665 539 903.833 L 539 880 455.500 880 L 372 880 372 903.386 L 372 926.773 376.711 927.479 C 388.499 929.247, 398.968 935.984, 402.789 944.261 C 403.865 946.593, 450.815 1146.387, 507.122 1388.250 L 609.498 1828 624.249 1828 C 632.362 1828, 639 1827.641, 639 1827.202 C 639 1826.763, 641.717 1808.651, 645.037 1786.952 C 648.358 1765.254, 669.739 1625.325, 692.551 1476 C 715.363 1326.675, 734.194 1204.050, 734.397 1203.500 C 734.601 1202.950, 735.019 1203.175, 735.327 1204 C 735.807 1205.285, 852.052 1802.910, 855.341 1821 L 856.523 1827.500 869.646 1827.778 C 882.576 1828.052, 882.777 1828.023, 883.337 1825.778 C 883.649 1824.525, 927.366 1626.850, 980.484 1386.500 C 1033.603 1146.150, 1077.522 948.075, 1078.082 946.334 C 1079.708 941.276, 1086.347 934.530, 1092.212 931.976 C 1096.584 930.072, 1099.102 929.696, 1106.750 929.804 L 1116 929.935 1116 904.968 L 1116 880 1041.500 880 L 967 880 967 904.392 L 967 928.785 977.250 928.273 C 988.863 927.694, 993.407 928.604, 1000.094 932.844 C 1006.191 936.711, 1009.156 942.901, 1009.747 953 C 1010.163 960.100, 1007.008 974.285, 950.578 1219 C 917.792 1361.175, 890.607 1478.368, 890.164 1479.429 C 889.584 1480.824, 888.774 1478.466, 887.244 1470.929 C 882.539 1447.749, 748.864 808.373, 748.384 806.750 C 747.929 805.215, 746.455 805, 736.401 805 C 728.109 805, 724.827 805.346, 724.540 806.250" stroke="none" fill="#ffffff" fill-rule="evenodd"/><path d="M 719.097 1.612 C 709.094 3.288, 692.629 8.645, 683.829 13.085 C 672.317 18.895, 662.631 26.141, 652 36.895 C 636.724 52.350, 626.007 69.460, 618.475 90.419 L 615.270 99.338 605.385 101.577 C 575.735 108.292, 546.888 124.772, 525.228 147.369 C 517.658 155.267, 507.971 168.581, 504.915 175.288 C 503.687 177.983, 503.616 178, 493.311 178 C 464.611 178, 422.087 185.435, 389.831 196.092 C 355.296 207.502, 325.822 222.024, 293.500 243.555 C 184.152 316.395, 99.823 445.920, 50.363 617 C 22.075 714.848, 6.685 815.535, 0.994 940 C -0.283 967.937, -0.276 1057.904, 1.005 1088 C 6.646 1220.439, 25.352 1351.070, 56.638 1476.500 C 117.431 1720.228, 220.265 1929.771, 352.807 2080 C 379.790 2110.583, 420.090 2149.575, 450.500 2174.522 C 526.770 2237.088, 611.062 2281.005, 697.094 2302.999 L 709.687 2306.218 715.387 2314.099 C 727.378 2330.678, 737.676 2340, 744 2340 C 750.324 2340, 760.622 2330.678, 772.613 2314.099 L 778.313 2306.218 790.906 2302.999 C 876.940 2281.004, 961.452 2236.969, 1037.500 2174.510 C 1080.367 2139.302, 1126.239 2092.701, 1163.690 2046.314 C 1309.753 1865.394, 1415.375 1610.250, 1462.912 1323.500 C 1474.277 1254.943, 1482.785 1175.622, 1485.973 1108.500 C 1486.547 1096.400, 1487.283 1083.575, 1487.607 1080 C 1488.724 1067.685, 1489.095 951.823, 1488.015 952.491 C 1487.356 952.898, 1486.998 949.852, 1486.995 943.809 C 1486.984 923.509, 1482.857 867.145, 1478.406 826.500 C 1457.756 637.954, 1400.668 474.188, 1316.310 361.500 C 1295.704 333.975, 1273.627 309.162, 1251.561 288.729 C 1204.263 244.932, 1153.858 214.491, 1098.169 196.092 C 1065.913 185.435, 1023.389 178, 994.689 178 C 984.384 178, 984.313 177.983, 983.085 175.288 C 980.029 168.581, 970.342 155.267, 962.772 147.369 C 941.112 124.772, 912.265 108.292, 882.615 101.577 L 872.730 99.338 869.518 90.342 C 857.423 56.467, 833.060 27.663, 804.171 13.085 C 794.957 8.436, 778.901 3.314, 768 1.548 C 756.186 -0.367, 730.705 -0.334, 719.097 1.612 M 730.938 24.122 C 691.768 27.593, 660.832 48.933, 644.068 84.044 C 638.993 94.674, 638.581 97.403, 642 97.741 C 663.010 99.820, 686.100 108.512, 704 121.079 C 714.905 128.736, 729.611 143.977, 737.038 155.321 C 740.524 160.645, 743.656 165, 744 165 C 744.344 165, 747.497 160.613, 751.007 155.250 C 771.617 123.762, 808.462 101.456, 846 97.741 C 849.643 97.380, 849.015 94.456, 842.493 81.397 C 825.506 47.388, 795.374 27.571, 755.302 24.056 C 748.811 23.487, 742.825 23.078, 742 23.148 C 741.175 23.218, 736.197 23.656, 730.938 24.122 M 612.821 121.497 C 585.544 126.088, 559.330 142.153, 542.753 164.440 C 537.160 171.959, 532.481 179.815, 533.180 180.512 C 533.356 180.688, 538.675 181.993, 545 183.413 C 572.520 189.591, 598.712 199.300, 616.624 209.963 C 629.438 217.591, 640.182 226.319, 652.310 238.955 C 689.035 277.218, 712.221 323.964, 720.532 376.500 C 722.739 390.447, 723.572 421.339, 722.074 433.640 C 717.531 470.937, 702.390 500.063, 677.248 519.867 C 662.327 531.619, 649.515 538.305, 629 545.045 C 602.759 553.665, 578.992 557.155, 546 557.233 C 515.673 557.304, 499.286 555.708, 491.341 551.909 C 460.867 537.338, 444.769 468.651, 457.146 406 C 459.679 393.180, 465.452 376.460, 470.402 367.608 C 474.809 359.729, 483.723 349.833, 489.423 346.492 C 507.551 335.868, 533.386 347.376, 544.914 371.209 C 551.732 385.307, 553.481 394.438, 553.491 416 C 553.501 435.760, 552.485 442.933, 547.352 459.375 C 539.106 485.782, 522.715 504.858, 510.275 502.524 C 502.041 500.979, 492.594 487.017, 487.893 469.446 C 484.889 458.221, 484.106 435.037, 486.425 425.986 C 489.988 412.078, 497.104 404.398, 505.498 405.399 C 510.083 405.946, 514 409.689, 514 413.521 C 514 414.847, 512.444 418.763, 510.541 422.223 C 505.655 431.113, 503.678 439.634, 504.198 449.555 C 505.608 476.412, 526.283 468.665, 532.619 438.906 C 535.877 423.607, 533.043 395.845, 527.018 384.036 C 522.296 374.779, 513.583 368.071, 506.218 368.022 C 490.723 367.918, 475.926 393.812, 471.954 427.982 C 470.443 440.977, 471.260 466.775, 473.506 477 C 480.228 507.601, 494.105 525.512, 512.100 526.814 C 523.093 527.609, 534.125 522.836, 544.704 512.710 C 559.766 498.292, 571.095 475.845, 577.235 448.259 C 580.250 434.709, 580.485 398.982, 577.644 386.053 C 568.625 345.005, 546.644 316.458, 516.583 306.751 C 512.020 305.278, 506.575 304.659, 494.792 304.275 C 456.236 303.018, 418.697 311.801, 380 331.132 C 339.131 351.548, 300.216 384.032, 267.390 425.135 C 261.329 432.724, 260.017 434.974, 260.471 437 C 261.679 442.388, 272.271 462.165, 280.823 475 C 306.564 513.632, 341.336 548.938, 388.500 584.331 C 403.432 595.537, 435.200 616.637, 450.622 625.592 L 462.244 632.341 466.872 630.555 C 510.312 613.787, 539.622 607.149, 574 606.292 C 611.113 605.368, 654.316 611.011, 711.426 624.245 C 741.966 631.321, 745.922 631.293, 779 623.756 C 832.037 611.672, 872.997 606, 907.227 606 C 940.676 606, 970.799 611.971, 1009 626.174 C 1016.425 628.935, 1023.400 631.403, 1024.500 631.659 C 1028.200 632.519, 1070.913 605.611, 1098.500 585.040 C 1146.120 549.532, 1181.090 514.127, 1207.186 475 C 1216.026 461.745, 1228 439.240, 1228 435.879 C 1228 434.940, 1224.596 429.970, 1220.436 424.836 C 1163.074 354.035, 1093.808 312.544, 1020.255 304.926 C 1004.318 303.275, 979.285 304.211, 971.417 306.751 C 941.356 316.458, 919.375 345.005, 910.356 386.053 C 907.514 398.987, 907.772 434.676, 910.807 448.340 C 916.927 475.900, 928.224 498.282, 943.296 512.710 C 969.775 538.057, 997.935 529.038, 1010.579 491.159 C 1020.743 460.708, 1018.752 416.740, 1006.019 390.500 C 1000.964 380.082, 996.999 374.850, 991.295 371.072 C 977.706 362.071, 962.211 373.753, 956.418 397.366 C 954.067 406.949, 953.471 429.979, 955.346 438.759 C 957.563 449.140, 961.521 457.304, 966.613 461.997 C 982.561 476.698, 990.787 446.503, 977.451 422.216 C 973.473 414.972, 973.195 412.293, 976.043 408.672 C 980.618 402.856, 990.698 404.765, 995.935 412.439 C 1001.440 420.504, 1002.508 425.782, 1002.424 444.500 C 1002.360 458.720, 1001.990 462.799, 1000.164 469.446 C 995.290 487.191, 985.932 500.984, 977.725 502.524 C 965.343 504.847, 948.844 485.646, 940.647 459.375 C 935.502 442.887, 934.498 435.769, 934.528 416 C 934.560 394.412, 936.321 385.198, 943.086 371.209 C 954.614 347.376, 980.449 335.868, 998.577 346.492 C 1004.465 349.943, 1013.333 359.916, 1017.953 368.282 C 1023.295 377.956, 1029.533 397.119, 1032.058 411.613 C 1034.720 426.894, 1035.672 454.391, 1034.097 470.500 C 1030.046 511.944, 1015.910 542.702, 996.693 551.892 C 991.472 554.390, 988.382 555.045, 977 556.069 C 969.575 556.737, 953.825 557.261, 942 557.233 C 909.006 557.155, 885.238 553.665, 859 545.044 C 842.416 539.595, 832.212 534.730, 819.414 526.169 C 791.805 507.702, 773.981 479.526, 767.259 443.724 C 764.547 429.279, 764.848 391.780, 767.815 374.597 C 776.071 326.778, 795.156 285.527, 825.229 250.500 C 848.006 223.972, 866.983 209.804, 895.376 198.130 C 908.739 192.635, 929.111 186.385, 944.581 183.033 C 950.001 181.859, 954.651 180.682, 954.915 180.418 C 956.442 178.891, 942.076 159.276, 933.381 151.017 C 899.043 118.399, 850.366 110.945, 806.464 131.581 C 779.051 144.466, 759.923 165.902, 751.659 193 C 748.726 202.618, 746.734 206, 744 206 C 741.282 206, 739.324 202.666, 736.386 193.034 C 734.963 188.367, 732.216 181.388, 730.282 177.525 C 710.435 137.875, 659.597 113.625, 612.821 121.497 M 470 204.108 C 439.227 206.805, 405.826 215.028, 372.500 228.112 C 356.519 234.387, 328.459 248.582, 313.647 257.886 C 221.778 315.589, 152.770 405.664, 100.961 535.500 C 71.944 608.220, 51.344 688.854, 38.055 781.737 C 18.975 915.101, 16.271 1043.813, 29.527 1187.746 C 52.408 1436.199, 125.699 1681.316, 233.912 1871.297 C 300.835 1988.788, 379.106 2084.227, 464.701 2152.707 C 526.578 2202.211, 591.984 2238.368, 661.500 2261.499 C 673.600 2265.525, 684.700 2269.084, 686.166 2269.408 L 688.832 2269.996 684.376 2258.909 C 676.652 2239.693, 672.518 2220.742, 671.195 2198.487 L 670.500 2186.801 655.500 2180.891 C 636.515 2173.410, 600.703 2155.708, 582.500 2144.806 C 480.791 2083.890, 389.383 1987.492, 313.858 1861.500 C 288.937 1819.925, 263.877 1772.004, 242.959 1725.923 C 160.956 1545.272, 108.759 1332.009, 94.535 1119.500 C 89.681 1046.989, 89.678 964.008, 94.526 896.500 C 107.679 713.353, 152.763 558.080, 224.751 448 C 288.056 351.197, 368.121 295.249, 461 282.914 C 475.947 280.929, 501.818 281.138, 512 283.327 C 576.622 297.213, 614.331 371.918, 597.901 453.500 C 592.643 479.605, 580.631 505.443, 566.346 521.371 C 561.673 526.581, 560.066 530.466, 561.849 532.249 C 563.330 533.730, 582.086 531.583, 594.908 528.463 C 625.006 521.141, 648.907 508.792, 667.362 491.030 C 682.423 476.533, 692.344 459.547, 697.722 439.051 C 700.814 427.268, 701.919 402.231, 700.068 385.907 C 695.065 341.784, 678.241 300.613, 652.181 268.721 C 644.056 258.778, 624.990 240.684, 615.415 233.828 C 594.601 218.926, 562.189 207.528, 530.789 204.070 C 519.696 202.848, 484.123 202.870, 470 204.108 M 956.266 204.101 C 925.468 207.685, 892.957 219.235, 872.592 233.828 C 862.985 240.712, 845.281 257.472, 836.514 267.983 C 805.392 305.296, 787 357.091, 787 407.420 C 787 423.308, 788.696 435.261, 792.598 446.887 C 804.281 481.691, 832.708 508.394, 873.084 522.493 C 887.219 527.428, 900.492 530.547, 913.867 532.074 C 926.013 533.461, 927.727 533.025, 926.668 528.823 C 926.346 527.545, 923.785 523.800, 920.978 520.500 C 910.115 507.730, 901.712 492.307, 895.564 473.852 C 876.408 416.355, 887.274 352.320, 922.688 314.008 C 944.391 290.528, 971.779 279.879, 1006.500 281.419 C 1034.200 282.648, 1061.951 288.189, 1087.465 297.585 C 1103.024 303.315, 1129.658 316.466, 1143.787 325.396 C 1276.098 409.014, 1366.908 607.094, 1390.941 864.500 C 1395.658 915.029, 1396.454 935.367, 1396.476 1006 C 1396.496 1072.658, 1396.103 1085.171, 1392.433 1134.500 C 1384.520 1240.877, 1366.172 1352.172, 1339.512 1455.500 C 1295.368 1626.594, 1228.591 1782.127, 1146.524 1905 C 1086.515 1994.847, 1019.771 2065.903, 946.180 2118.287 C 910.697 2143.545, 869.624 2166.169, 832.500 2180.906 L 817.500 2186.860 816.807 2198.680 C 815.518 2220.683, 811 2241.058, 803.156 2260.247 L 799.172 2269.995 801.836 2269.407 C 803.301 2269.084, 814.400 2265.525, 826.500 2261.499 C 951.818 2219.800, 1065.019 2134.991, 1161.739 2010.341 C 1268.431 1872.838, 1351.456 1695.712, 1405.436 1490.436 C 1455.200 1301.190, 1476.101 1087.918, 1462.956 903.500 C 1447.576 687.740, 1398.945 521.329, 1314.687 396.142 C 1294.494 366.141, 1277.505 345.437, 1253.029 321 C 1217.954 285.983, 1185.429 262.076, 1145.500 241.964 C 1102.076 220.092, 1060.377 207.838, 1016.500 204.055 C 1002.542 202.852, 966.767 202.879, 956.266 204.101 M 245.562 454.288 C 239.686 462.714, 226.092 484.797, 219.232 497.061 C 170.600 584.005, 137.100 697.770, 122.077 827 C 119.634 848.015, 116.016 889.491, 116.007 896.597 L 116 901.693 128.750 907.739 C 168.079 926.390, 211.864 938.998, 256.782 944.609 C 264.088 945.522, 270.292 946.041, 270.569 945.764 C 270.847 945.487, 272.832 936.539, 274.980 925.880 C 288.069 860.938, 309.553 803.254, 338.720 754.738 C 355.498 726.831, 370.891 706.954, 392.418 685.398 C 408.495 669.301, 420.666 659.095, 436.006 648.849 C 441.234 645.357, 445.734 642.177, 446.006 641.781 C 446.278 641.386, 441.100 637.759, 434.500 633.721 C 363.078 590.023, 302.947 535.618, 267.664 482.776 C 262.991 475.778, 256.993 465.551, 254.334 460.049 C 251.675 454.547, 249.275 450.053, 249 450.061 C 248.725 450.069, 247.178 451.971, 245.562 454.288 M 1233.672 460.027 C 1231.016 465.491, 1225.251 475.391, 1220.861 482.027 C 1185.941 534.804, 1125.222 589.839, 1053.500 633.721 C 1046.900 637.759, 1041.703 641.386, 1041.952 641.781 C 1042.200 642.177, 1046.250 645.160, 1050.952 648.411 C 1073.823 664.224, 1100.378 689.216, 1118.764 712.230 C 1163.622 768.381, 1196.912 844.295, 1213.536 928.351 C 1215.369 937.619, 1217.107 945.440, 1217.398 945.731 C 1217.688 946.022, 1224.130 945.492, 1231.713 944.553 C 1276.276 939.039, 1320.532 926.204, 1360.250 907.276 L 1372 901.677 1371.993 896.588 C 1371.984 889.458, 1368.358 847.929, 1365.917 827 C 1348.587 678.376, 1308.381 554.695, 1247.010 461.220 C 1242.959 455.049, 1239.386 450.021, 1239.072 450.046 C 1238.757 450.071, 1236.327 454.562, 1233.672 460.027 M 575 632.687 C 535.333 635.664, 499.369 644.561, 473.655 657.760 C 439.143 675.476, 401.244 710.957, 374.040 751.022 C 323.713 825.142, 293.141 930.397, 286.909 1051 C 284.678 1094.193, 286.717 1165.801, 291.537 1213.500 C 301.551 1312.609, 324.937 1414.517, 358.198 1504 C 373.220 1544.412, 386.544 1574.227, 414.057 1629 C 443.858 1688.327, 469.452 1732.819, 501.494 1781 C 536.610 1833.803, 568.147 1873.532, 604.837 1911.185 C 645.912 1953.339, 685.726 1983.071, 728.674 2003.662 L 744.070 2011.044 759.410 2003.654 C 767.847 1999.589, 779.193 1993.661, 784.625 1990.479 C 880.421 1934.363, 977.958 1815.135, 1063.806 1649.212 C 1109.192 1561.492, 1133.077 1503.215, 1155.512 1425.463 C 1179.550 1342.151, 1193.133 1264.356, 1200.203 1169.500 C 1201.921 1146.452, 1201.931 1051.548, 1200.218 1032 C 1189.861 913.824, 1162.607 824.218, 1115.510 753.500 C 1102.624 734.151, 1090.936 719.849, 1075.042 703.980 C 1037.683 666.679, 1004.774 648.382, 958.211 639.020 C 932.776 633.907, 919.875 632.637, 893 632.602 C 859.777 632.558, 845.898 634.587, 798 646.489 C 761.089 655.661, 757.073 656.398, 744 656.398 C 730.887 656.398, 727.639 655.794, 687.617 645.923 C 657.771 638.562, 636.468 634.611, 618 633.012 C 607.259 632.083, 585.270 631.916, 575 632.687 M 114.611 920.750 C 113.266 926.688, 112.734 1027.812, 113.890 1057.500 C 122.230 1271.596, 165.481 1479.069, 240.406 1664.397 C 258.784 1709.855, 286.589 1770, 289.227 1770 C 292.596 1770, 320.486 1762.544, 333.830 1758.077 C 367.815 1746.698, 395.501 1732.288, 418.311 1714.105 L 426.122 1707.879 423.209 1702.689 C 347.374 1567.633, 299.093 1433.480, 275.504 1292.272 C 257.315 1183.391, 254.351 1064.605, 267.475 970.517 C 268.241 965.027, 268.785 960.489, 268.684 960.433 C 268.583 960.377, 261.975 959.556, 254 958.607 C 211.906 953.600, 166.683 941, 128 923.500 C 121.313 920.475, 115.705 918, 115.538 918 C 115.370 918, 114.953 919.237, 114.611 920.750 M 1363 922.120 C 1325.631 939.734, 1276.914 953.504, 1233.717 958.662 L 1218.935 960.427 1219.461 962.964 C 1219.751 964.359, 1220.890 972.925, 1221.993 982 C 1234.189 1082.351, 1229.490 1201.665, 1208.976 1312.497 C 1191.683 1405.926, 1164.761 1492.721, 1125.481 1581.679 C 1110.545 1615.506, 1084.396 1667.733, 1065.642 1701.194 L 1061.890 1707.889 1069.695 1714.110 C 1092.499 1732.287, 1120.189 1746.699, 1154.170 1758.077 C 1167.354 1762.491, 1195.391 1770, 1198.689 1770 C 1200.162 1770, 1206.826 1757.036, 1219.507 1729.500 C 1304.789 1544.318, 1358.170 1325.119, 1371.956 1103.500 C 1374.488 1062.783, 1375.244 1027.382, 1374.676 976 C 1374.124 926.100, 1373.765 917.911, 1372.133 918.057 C 1371.785 918.088, 1367.675 919.916, 1363 922.120 M 0.470 1013.500 C 0.470 1047.050, 0.596 1060.630, 0.750 1043.678 C 0.903 1026.726, 0.903 999.276, 0.749 982.678 C 0.595 966.080, 0.470 979.950, 0.470 1013.500 M 426.500 1726.097 C 400.239 1747.919, 355.934 1768.571, 311.842 1779.546 C 303.954 1781.509, 296.968 1783.289, 296.318 1783.500 C 293.831 1784.310, 324.764 1839.368, 348.848 1877 C 403.292 1962.072, 462.074 2029.196, 528 2081.578 C 543.116 2093.588, 563.309 2108, 565.022 2108 C 569.229 2108, 610.436 2068.390, 624.320 2051 C 637.901 2033.990, 650.087 2014.405, 657.393 1997.851 L 659.886 1992.202 648.693 1983.669 C 630.114 1969.505, 614.582 1955.657, 592.463 1933.537 C 551.559 1892.632, 515.804 1848.408, 478.178 1792.186 C 465.199 1772.792, 444.440 1739.720, 437.105 1726.750 C 435.317 1723.588, 433.549 1721.025, 433.177 1721.056 C 432.804 1721.087, 429.800 1723.355, 426.500 1726.097 M 1049.437 1729.250 C 1041.047 1743.859, 1022.074 1773.975, 1008.804 1793.750 C 971.842 1848.826, 935.890 1893.204, 895.547 1933.548 C 873.473 1955.623, 857.969 1969.441, 839.335 1983.648 L 828.169 1992.160 829.686 1995.830 C 835.996 2011.092, 849.468 2033.002, 862.995 2050 C 877.868 2068.690, 918.539 2108, 923.003 2108 C 924.758 2108, 947.844 2091.390, 963.313 2078.998 C 1041.537 2016.332, 1114.357 1926.238, 1174.673 1817.500 C 1191.176 1787.749, 1193.077 1783.960, 1191.730 1783.519 C 1191.053 1783.297, 1184.119 1781.528, 1176.320 1779.587 C 1132.375 1768.651, 1089.639 1748.799, 1061.803 1726.391 C 1058.120 1723.426, 1054.897 1721, 1054.641 1721 C 1054.385 1721, 1052.043 1724.713, 1049.437 1729.250 M 666.936 2012.218 C 652.550 2041.609, 624.288 2077.014, 594.659 2102.764 C 589.131 2107.569, 583.093 2112.851, 581.242 2114.501 L 577.875 2117.502 591.688 2125.658 C 622.899 2144.087, 672.480 2167.148, 673.442 2163.684 C 673.623 2163.033, 674.316 2160.475, 674.982 2158 C 679.410 2141.538, 695.325 2128.579, 718.936 2122.211 C 727.280 2119.960, 730.478 2119.631, 744 2119.631 C 757.522 2119.631, 760.720 2119.960, 769.064 2122.211 C 792.675 2128.579, 808.590 2141.538, 813.018 2158 C 813.684 2160.475, 814.377 2163.033, 814.558 2163.684 C 815.516 2167.133, 865.402 2143.960, 896.045 2125.832 C 903.720 2121.291, 909.976 2117.334, 909.947 2117.038 C 909.918 2116.742, 906.460 2113.800, 902.264 2110.500 C 898.067 2107.200, 887.367 2097.300, 878.485 2088.500 C 852.653 2062.904, 836.220 2041.263, 822.476 2014.742 L 815.347 2000.985 809.609 2005.094 C 796.058 2014.797, 767.420 2030.562, 750.750 2037.493 L 744 2040.300 737.250 2037.481 C 720.798 2030.609, 694.276 2016.145, 680.500 2006.532 C 677.200 2004.229, 674.021 2002.068, 673.436 2001.729 C 672.812 2001.367, 670.125 2005.703, 666.936 2012.218 M 734.039 2141.123 C 712.675 2144.328, 697.728 2154.121, 694.805 2166.829 C 692.729 2175.854, 693.051 2210.390, 695.310 2221 C 699.901 2242.563, 710.037 2266.540, 722.789 2286 C 731.843 2299.817, 737.339 2306.607, 741.005 2308.503 C 743.709 2309.901, 744.291 2309.901, 746.995 2308.503 C 754.934 2304.397, 774.250 2274.061, 783.292 2251.500 C 792.516 2228.482, 795.512 2211.578, 794.691 2187.175 C 793.986 2166.237, 793.104 2162.444, 787.479 2156.188 C 777.616 2145.218, 752.999 2138.278, 734.039 2141.123" stroke="none" fill="#000000" fill-rule="evenodd"/><path d="M 721.235 25.439 C 689.869 31.376, 665.910 47.499, 649.927 73.425 C 645.439 80.704, 638.428 95.766, 639.181 96.510 C 639.356 96.684, 644 97.585, 649.500 98.513 C 668.395 101.700, 685.545 108.555, 702 119.498 C 712.967 126.792, 729.538 143.611, 736.979 155 C 740.392 160.225, 743.552 164.500, 744 164.500 C 744.448 164.500, 747.608 160.225, 751.021 155 C 758.614 143.378, 775.146 126.682, 786.500 119.170 C 802.425 108.634, 819.939 101.681, 838.500 98.526 C 844 97.591, 848.644 96.684, 848.819 96.510 C 849.572 95.766, 842.561 80.704, 838.073 73.425 C 823.362 49.562, 801.873 33.996, 773.853 26.905 C 763.022 24.164, 732.469 23.313, 721.235 25.439 M 613.835 121.472 C 589.683 125.434, 564.346 139.355, 548.699 157.259 C 543.578 163.119, 533 178.414, 533 179.958 C 533 180.344, 536.712 181.437, 541.250 182.387 C 554.606 185.183, 577.753 191.944, 588.270 196.120 C 612.366 205.689, 629.109 216.256, 645.865 232.470 C 688.231 273.467, 713.892 324.490, 721.570 383 C 723.776 399.811, 723.044 433.054, 720.160 447.036 C 711.645 488.317, 689.205 517.460, 651.409 536.323 C 619.864 552.067, 574.012 559.651, 526.599 556.968 C 493.779 555.111, 489.818 553.905, 479.188 542.542 C 468.554 531.174, 460.752 512.445, 455.871 486.566 C 453.223 472.526, 452.207 440.108, 453.938 424.898 C 460.162 370.231, 483.279 336.961, 510.922 342.890 C 519.802 344.794, 527.023 348.873, 534.243 356.064 C 545.320 367.096, 551.595 382.733, 554.034 405.385 C 556.646 429.646, 549.442 462.433, 536.980 483 C 532.262 490.785, 529.740 493.685, 523.628 498.351 C 511.796 507.382, 501.795 502.609, 492.951 483.709 C 487.536 472.137, 484.815 459.175, 484.720 444.500 C 484.563 420.264, 491.039 406.652, 503.387 405.260 C 506.862 404.868, 508.128 405.237, 510.676 407.381 C 512.373 408.808, 513.991 410.856, 514.272 411.932 C 514.567 413.058, 512.929 417.840, 510.412 423.202 C 503.940 436.991, 502.465 447.469, 505.540 457.821 C 510.437 474.313, 526.200 464.333, 532.107 441 C 534.329 432.225, 533.768 406.503, 531.140 396.686 C 527.045 381.385, 519.740 371.587, 510.498 368.999 C 503.256 366.972, 499.517 368.290, 492.544 375.327 C 483.119 384.840, 476.286 400.895, 472.894 421.500 C 471.132 432.209, 471.114 463.361, 472.866 473 C 477.396 497.926, 488.007 516.768, 501.498 523.839 C 505.669 526.026, 507.829 526.465, 514.500 526.481 C 521.706 526.498, 523.282 526.127, 530.371 522.742 C 550.553 513.105, 568.226 485.991, 575.934 452.839 C 580.997 431.062, 581.262 402.885, 576.593 382.739 C 571.154 359.264, 561.481 340.580, 547.500 326.539 C 537.415 316.411, 529.459 311.292, 517.500 307.236 C 509.771 304.614, 508.790 304.525, 488.500 304.585 C 471.679 304.634, 464.913 305.085, 454.500 306.848 C 394.794 316.956, 342.699 345.767, 293.966 395.629 C 280.931 408.967, 261.539 431.433, 260.320 434.608 C 259.649 436.356, 265.266 448.787, 272.246 461 C 304.808 517.979, 373.067 580.659, 452.374 626.407 L 462.248 632.102 476.874 626.623 C 494.649 619.963, 512.542 614.606, 527.797 611.374 C 574.487 601.485, 626.696 605.031, 709.500 623.716 C 743.124 631.303, 745.070 631.303, 778.500 623.726 C 860.810 605.069, 913.517 601.486, 960.203 611.374 C 975.485 614.611, 993.358 619.966, 1011.233 626.663 L 1025.966 632.182 1040.618 623.481 C 1119.234 576.794, 1182.260 518.460, 1215.485 461.634 C 1222.098 450.324, 1228.375 436.420, 1227.683 434.616 C 1226.462 431.434, 1207.084 408.982, 1194.034 395.629 C 1145.361 345.829, 1093.250 316.955, 1033.939 306.924 C 1023.052 305.083, 1016.513 304.639, 999.500 304.587 C 979.207 304.525, 978.231 304.614, 970.500 307.236 C 958.541 311.292, 950.585 316.411, 940.500 326.539 C 915.283 351.864, 903.582 394.016, 909.477 438.301 C 914.672 477.332, 934.183 511.547, 957.629 522.742 C 964.718 526.127, 966.294 526.498, 973.500 526.481 C 980.171 526.465, 982.331 526.026, 986.502 523.839 C 1006.188 513.521, 1018.173 481.004, 1016.667 442 C 1015.427 409.913, 1007.390 385.728, 993.949 373.644 C 988.082 368.369, 983.936 367.198, 977.502 368.999 C 967.912 371.685, 959.823 383.137, 956.312 399 C 954.169 408.686, 953.926 433.199, 955.896 441 C 960.398 458.826, 970.763 469.661, 978.478 464.606 C 982.209 462.162, 984.410 453.458, 983.679 444.040 C 983.027 435.625, 981.698 431.276, 976.644 421.016 C 972.742 413.097, 972.839 411.154, 977.324 407.381 C 979.872 405.237, 981.138 404.868, 984.613 405.260 C 996.961 406.652, 1003.437 420.264, 1003.280 444.500 C 1003.185 459.175, 1000.464 472.137, 995.049 483.709 C 985.109 504.951, 973.728 508.314, 959.545 494.200 C 942.700 477.435, 930.854 436.432, 933.979 405.706 C 937.551 370.587, 953.014 348.051, 977.078 342.890 C 1004.749 336.956, 1027.832 370.176, 1034.062 424.898 C 1035.793 440.108, 1034.777 472.526, 1032.129 486.566 C 1027.248 512.445, 1019.446 531.174, 1008.812 542.542 C 998.182 553.905, 994.221 555.111, 961.401 556.968 C 932.180 558.622, 901.648 556.230, 876.500 550.318 C 814.593 535.763, 777.795 500.079, 767.375 444.500 C 764.471 429.009, 764.730 390.222, 767.855 372.667 C 775.191 331.451, 791.089 294.778, 816.129 261.310 C 826.934 246.868, 851.350 222.760, 862.953 215.076 C 884.636 200.718, 913.483 189.448, 946.500 182.437 C 950.900 181.502, 954.667 180.592, 954.871 180.414 C 955.406 179.948, 950.278 171.347, 945.974 165.490 C 932.486 147.138, 912.852 132.971, 890.509 125.471 C 841.188 108.915, 780.363 132.752, 757.750 177.500 C 756.360 180.250, 753.832 186.955, 752.130 192.401 C 748.937 202.621, 746.917 206, 744 206 C 741.119 206, 738.899 202.453, 736.400 193.857 C 727.453 163.084, 704.908 140.065, 671.290 127.378 C 654.728 121.128, 630.876 118.676, 613.835 121.472 M 479.500 203.662 C 449.626 206.094, 435.699 208.448, 412.869 214.925 C 370.995 226.803, 336.551 242.494, 302.714 265.108 C 229.846 313.806, 172.517 383.441, 125.485 480.378 C 69.913 594.919, 38.213 728.186, 25.550 900.500 C 20.105 974.606, 20.105 1056.635, 25.551 1138 C 45.098 1430.045, 131.871 1713.307, 266.791 1925.500 C 324.190 2015.774, 391.846 2093.772, 461.500 2149.973 C 525.683 2201.761, 591.575 2238.213, 665.770 2262.978 C 681.625 2268.270, 688 2269.893, 688 2268.638 C 688 2268.438, 686.623 2264.951, 684.940 2260.888 C 677.016 2241.756, 672.191 2220.332, 671.148 2199.647 L 670.500 2186.795 660.500 2183.030 C 568.984 2148.575, 475.777 2077.155, 397.493 1981.500 C 241.952 1791.447, 130.878 1492.630, 99.563 1180 C 97.173 1156.133, 95.070 1129.537, 92.922 1096 C 91.222 1069.458, 90.587 973.141, 91.910 942.500 C 96.705 831.445, 111.258 735.154, 136.350 648.473 C 191.340 458.503, 287.679 333.920, 410.415 294.059 C 438.235 285.024, 459.755 281.548, 487.500 281.607 C 509.541 281.654, 514.949 282.591, 530.466 289.050 C 562.045 302.197, 586.728 333.769, 597.059 374.230 C 609.589 423.308, 597.075 485.997, 568.073 519.427 C 565.722 522.137, 563.073 525.876, 562.186 527.736 C 559.976 532.371, 561.503 533.235, 570.500 532.436 C 606.173 529.269, 643.350 513.626, 666.126 492.199 C 676.426 482.510, 682.953 473.759, 689.026 461.500 C 698.392 442.590, 701.606 425.923, 700.693 401 C 698.233 333.872, 667.893 273.755, 617.060 235.289 C 596.050 219.390, 562.135 207.472, 528.144 204.044 C 518.722 203.094, 489.313 202.863, 479.500 203.662 M 958.051 204.078 C 924.546 207.853, 891.208 219.920, 870 235.947 C 858.855 244.370, 839.066 264.251, 830.898 275.232 C 812.322 300.203, 799.499 328.278, 792.639 359 C 787.451 382.232, 785.638 409.062, 788.072 426.566 C 790.542 444.324, 798.801 464.738, 808.910 478.072 C 824.185 498.220, 848.273 514.236, 878.055 524.046 C 895.419 529.766, 922.515 534.383, 925.808 532.184 C 927.943 530.758, 926.282 526.885, 920.780 520.464 C 890.795 485.467, 878.244 423.960, 890.941 374.230 C 901.258 333.824, 925.998 302.179, 957.534 289.050 C 972.884 282.660, 978.517 281.671, 1000 281.594 C 1028.074 281.493, 1050.184 285.113, 1078.500 294.445 C 1188.768 330.785, 1276.573 433.608, 1334.039 593.690 C 1369.486 692.435, 1389.926 806.222, 1395.980 938.500 C 1398.040 983.517, 1397.112 1064.286, 1393.969 1113.500 C 1372.560 1448.719, 1257.728 1777.177, 1090.508 1981.500 C 1012.183 2077.203, 919.060 2148.558, 827.500 2183.030 L 817.500 2186.795 816.853 2199.748 C 815.815 2220.535, 811.108 2241.339, 802.987 2261.031 C 801.344 2265.015, 800 2268.438, 800 2268.638 C 800 2270.592, 822.403 2263.624, 849.500 2253.241 C 1003.769 2194.129, 1135.788 2071.924, 1244.306 1887.784 C 1358.656 1693.746, 1435.942 1439.802, 1458.953 1182.500 C 1470.188 1056.865, 1469.275 949.710, 1455.954 830.500 C 1439.803 685.970, 1408.618 571.939, 1357.502 470.500 C 1325.848 407.681, 1293.908 361.931, 1253.488 321.512 C 1207.908 275.931, 1157.501 243.046, 1103.895 223.918 C 1089.324 218.718, 1060.977 210.674, 1050 208.623 C 1026.062 204.150, 978.343 201.792, 958.051 204.078 M 239.840 463.324 C 182.187 551.940, 142.506 670.532, 124.510 808 C 121.531 830.762, 117.415 872.292, 116.430 889.532 L 115.742 901.565 126.621 906.707 C 169.413 926.932, 217.334 940.401, 264.708 945.516 C 270.653 946.158, 270.936 946.088, 271.418 943.843 C 271.695 942.554, 272.863 936.325, 274.015 930 C 287.267 857.189, 318.341 780.545, 355.777 728.334 C 379.481 695.274, 406.479 668.534, 436.190 648.687 C 442.069 644.760, 446.794 641.492, 446.690 641.425 C 446.585 641.358, 439.075 636.676, 430 631.020 C 400.007 612.327, 371.980 591.853, 347 570.389 C 333.015 558.372, 306.102 531.771, 295.513 519.500 C 277.583 498.721, 259.301 472.065, 252.494 456.777 C 250.847 453.079, 249.275 450.044, 249 450.033 C 248.725 450.022, 244.603 456.003, 239.840 463.324 M 1235.506 456.777 C 1228.641 472.196, 1210.032 499.279, 1192.409 519.500 C 1154.824 562.627, 1107.831 600.724, 1044.237 639.623 L 1040.974 641.619 1050.737 648.250 C 1066.585 659.013, 1076.538 667.421, 1093.580 684.441 C 1115.910 706.742, 1132.470 727.971, 1148.824 755.262 C 1181.329 809.505, 1201.703 865.589, 1216.057 940.338 L 1217.178 946.176 1223.339 945.520 C 1269.086 940.648, 1319.379 926.593, 1360.250 907.259 L 1372 901.700 1372 897.455 C 1372 890.263, 1369.041 855.639, 1366.449 832.500 C 1349.654 682.567, 1309.339 557.104, 1247.475 462.247 C 1243.089 455.522, 1239.275 450.027, 1239 450.036 C 1238.725 450.046, 1237.153 453.079, 1235.506 456.777 M 723.998 804.719 C 723.997 805.149, 729.240 805.359, 735.650 805.187 C 744.423 804.951, 747.532 805.198, 748.228 806.187 C 748.951 807.214, 749.063 807.173, 748.744 806 C 748.416 804.792, 745.972 804.445, 736.168 804.219 C 729.476 804.065, 723.999 804.290, 723.998 804.719 M 539.432 904 C 539.432 917.475, 539.574 922.987, 539.747 916.250 C 539.920 909.513, 539.920 898.487, 539.747 891.750 C 539.574 885.013, 539.432 890.525, 539.432 904 M 966.231 904.750 C 966.016 928.224, 966.123 929.999, 967.750 929.985 C 968.977 929.974, 969.132 929.736, 968.268 929.187 C 967.361 928.611, 966.961 921.967, 966.750 903.952 L 966.463 879.500 966.231 904.750 M 114.331 922.750 C 112.989 930.795, 113.358 1058.083, 114.793 1082.500 C 119.541 1163.278, 126.445 1225.910, 138.603 1298.500 C 165.441 1458.739, 212.467 1611.445, 276.400 1745.958 L 287.589 1769.500 291.514 1769.179 C 297.597 1768.682, 319.952 1762.629, 336.191 1757.082 C 369.413 1745.734, 398.024 1730.616, 419.115 1713.266 L 425.975 1707.622 423.939 1704.172 C 410.482 1681.365, 376.444 1613.717, 362.466 1582 C 321.182 1488.325, 293.251 1396.213, 276.499 1298.500 C 258.110 1191.233, 254.313 1075.486, 266.083 981 C 267.213 971.925, 268.220 963.620, 268.319 962.544 C 268.484 960.761, 267.257 960.430, 254.500 958.817 C 209.049 953.071, 168.041 941.688, 128.537 923.852 C 121.408 920.634, 115.473 918, 115.349 918 C 115.224 918, 114.766 920.138, 114.331 922.750 M 1367.962 919.960 C 1359.584 924.390, 1334.883 934.349, 1319.812 939.373 C 1291.899 948.679, 1259.805 955.819, 1231.500 959.022 C 1226 959.645, 1221.021 960.298, 1220.435 960.475 C 1219.710 960.693, 1220.075 966.349, 1221.574 978.148 C 1231.980 1060.047, 1230.846 1159.153, 1218.428 1253 C 1203.248 1367.735, 1172.525 1476.063, 1124.413 1584.500 C 1109.920 1617.165, 1079.335 1677.834, 1064.389 1703.563 L 1062.029 1707.625 1068.888 1713.267 C 1090.455 1731.010, 1119.594 1746.273, 1153.500 1757.587 C 1168.512 1762.596, 1187.683 1767.903, 1196.294 1769.433 L 1200.087 1770.107 1208.655 1752.303 C 1291.052 1581.084, 1345.689 1379.797, 1366.443 1171 C 1372.905 1105.989, 1374.503 1070.820, 1374.484 994 C 1374.469 932.641, 1374.024 917.926, 1372.189 918.044 C 1371.810 918.069, 1369.908 918.930, 1367.962 919.960 M 426.500 1726.170 C 399.937 1748.325, 352.295 1770.264, 308.257 1780.621 C 301.524 1782.204, 296.013 1783.950, 296.010 1784.500 C 296.005 1785.836, 314.526 1819.763, 325.491 1838.500 C 384.451 1939.258, 451.763 2020.362, 525.136 2079.053 C 548.138 2097.453, 563.913 2108.350, 566.088 2107.343 C 569.889 2105.583, 590.422 2087.266, 602.798 2074.594 C 626.955 2049.861, 645.156 2024.478, 656.341 1999.923 L 659.792 1992.345 650.661 1985.423 C 618.610 1961.124, 580.400 1923.969, 547.387 1885 C 513.550 1845.058, 477.053 1793.439, 445.495 1740.888 C 439.091 1730.225, 433.547 1721.425, 433.176 1721.333 C 432.804 1721.241, 429.800 1723.418, 426.500 1726.170 M 1042.598 1740.756 C 1006.439 1800.743, 969.527 1852.043, 929.459 1898 C 903.913 1927.301, 858.436 1970.280, 835.279 1987.007 C 831.858 1989.478, 829.045 1992.054, 829.029 1992.732 C 828.976 1994.975, 836.550 2010.337, 842.966 2021 C 855.377 2041.626, 872.863 2063.061, 893.277 2082.671 C 905.005 2093.938, 921.536 2108, 923.053 2108 C 923.591 2108, 929.986 2103.737, 937.265 2098.527 C 1012.565 2044.631, 1085.467 1963.573, 1145.046 1867.500 C 1162.757 1838.940, 1192.001 1787.234, 1191.990 1784.500 C 1191.987 1783.950, 1186.476 1782.204, 1179.743 1780.621 C 1136.594 1770.473, 1092.947 1750.711, 1064.402 1728.398 C 1059.197 1724.329, 1054.839 1721.003, 1054.719 1721.006 C 1054.599 1721.010, 1049.144 1729.897, 1042.598 1740.756 M 883 1826.387 C 883 1827.945, 881.721 1828.079, 869.498 1827.804 C 862.072 1827.637, 855.997 1827.838, 855.998 1828.250 C 855.999 1828.662, 862.089 1829, 869.531 1829 C 880.805 1829, 883.162 1828.743, 883.655 1827.457 C 883.981 1826.608, 883.966 1825.633, 883.624 1825.290 C 883.281 1824.947, 883 1825.441, 883 1826.387 M 616.250 1828.743 C 620.513 1828.931, 627.487 1828.931, 631.750 1828.743 C 636.013 1828.556, 632.525 1828.402, 624 1828.402 C 615.475 1828.402, 611.987 1828.556, 616.250 1828.743 M 666.717 2013.101 C 660.098 2026.605, 648.062 2045.081, 636.475 2059.525 C 625.849 2072.769, 603.681 2095.440, 590.040 2107.011 C 583.968 2112.162, 579 2116.728, 579 2117.157 C 579 2121.041, 664.726 2164, 672.478 2164 C 673.192 2164, 674.037 2162.173, 674.414 2159.811 C 676.191 2148.701, 687.867 2135.098, 701.204 2128.601 C 727.721 2115.683, 760.294 2115.689, 786.832 2128.618 C 800.486 2135.270, 811.768 2148.445, 813.595 2159.871 C 813.966 2162.189, 814.811 2164, 815.522 2164 C 823.274 2164, 909 2121.041, 909 2117.157 C 909 2116.728, 904.077 2112.201, 898.061 2107.097 C 866.198 2080.067, 837.280 2044.708, 821.526 2013.514 L 815.392 2001.367 807.446 2006.714 C 790.249 2018.285, 762.072 2033.547, 748.750 2038.504 C 744.211 2040.193, 743.789 2040.194, 739.250 2038.507 C 726.048 2033.604, 697.189 2017.917, 679.616 2006.092 L 672.500 2001.303 666.717 2013.101 M 726.468 2142.877 C 711.865 2146.470, 700.328 2153.737, 696.901 2161.500 C 692.373 2171.757, 691.855 2204.144, 695.921 2222.770 C 700.679 2244.565, 710.971 2267.974, 724.997 2288.905 C 741.533 2313.582, 744.717 2314.392, 757.314 2297.129 C 774.837 2273.118, 786.563 2248.036, 792.079 2222.770 C 796.145 2204.144, 795.627 2171.757, 791.099 2161.500 C 787.597 2153.565, 775.171 2145.945, 760.303 2142.613 C 750.957 2140.518, 735.567 2140.639, 726.468 2142.877" stroke="none" fill="#dfc3a3" fill-rule="evenodd"/></svg>